<svg version="1.1" xmlns="http://www.w3.org/2000/svg" xmlns:xlink="http://www.w3.org/1999/xlink" width="470.33358" height="168.24963" viewBox="0,0,470.33358,168.24963"><g transform="translate(13.83621,-129.3497)"><g data-paper-data="{&quot;isPaintingLayer&quot;:true}" fill-rule="nonzero" stroke="none" stroke-width="0" stroke-linecap="butt" stroke-linejoin="miter" stroke-miterlimit="10" stroke-dasharray="" stroke-dashoffset="0" style="mix-blend-mode: normal"><path d="M125.27924,163.54948c0,-18.88801 15.31176,-34.19978 34.19978,-34.19978c18.88801,0 34.19978,15.31176 34.19978,34.19978c0,18.88801 -15.31176,34.19978 -34.19978,34.19978c-18.88801,0 -34.19978,-15.31176 -34.19978,-34.19978z" fill="#656565"/><path d="M292.18703,259.46027c0,-14.10624 11.43537,-25.5416 25.5416,-25.5416c14.10624,0 25.5416,11.43537 25.5416,25.5416c0,14.10624 -11.43537,25.5416 -25.5416,25.5416c-14.10624,0 -25.5416,-11.43537 -25.5416,-25.5416z" fill="#656565"/><path d="M405.41417,161.42804c0,-14.10624 11.43536,-25.5416 25.54161,-25.5416c14.10624,0 25.54161,11.43536 25.54161,25.5416c0,14.10624 -11.43537,25.54161 -25.54161,25.54161c-14.10624,0 -25.54161,-11.43537 -25.54161,-25.54161z" fill="#656565"/><path d="M-13.83621,272.05772c0,-14.10624 11.43536,-25.5416 25.54161,-25.5416c14.10624,0 25.54161,11.43536 25.54161,25.5416c0,14.10624 -11.43536,25.54161 -25.54161,25.54161c-14.10624,0 -25.54161,-11.43536 -25.54161,-25.54161z" fill="#656565"/></g></g></svg>